<mxfile host="app.diagrams.net" modified="2023-05-27T11:37:59.656Z" agent="Mozilla/5.0 (Windows NT 10.0; Win64; x64) AppleWebKit/537.36 (KHTML, like Gecko) Chrome/113.0.0.0 Safari/537.36" etag="dIzb1YbItRqssSv2VKby" version="21.3.4" type="google">
  <diagram name="Page-1" id="uRjLc7MaAi3aT4urJmLS">
    <mxGraphModel grid="1" page="1" gridSize="10" guides="1" tooltips="1" connect="1" arrows="1" fold="1" pageScale="1" pageWidth="850" pageHeight="1100" math="0" shadow="0">
      <root>
        <mxCell id="0" />
        <mxCell id="1" parent="0" />
        <mxCell id="GFIe7D0nDVD-GX_UhLsB-3" value="" style="edgeStyle=orthogonalEdgeStyle;html=1;verticalAlign=bottom;endArrow=open;endSize=8;strokeColor=#ff0000;rounded=0;entryX=0.45;entryY=0.01;entryDx=0;entryDy=0;entryPerimeter=0;" edge="1" parent="1" source="GFIe7D0nDVD-GX_UhLsB-2" target="GFIe7D0nDVD-GX_UhLsB-4">
          <mxGeometry relative="1" as="geometry">
            <mxPoint x="155" y="120" as="targetPoint" />
          </mxGeometry>
        </mxCell>
        <mxCell id="GFIe7D0nDVD-GX_UhLsB-8" style="edgeStyle=orthogonalEdgeStyle;rounded=0;orthogonalLoop=1;jettySize=auto;html=1;exitX=0.5;exitY=1;exitDx=0;exitDy=0;entryX=0.5;entryY=0;entryDx=0;entryDy=0;" edge="1" parent="1" source="GFIe7D0nDVD-GX_UhLsB-4" target="GFIe7D0nDVD-GX_UhLsB-6">
          <mxGeometry relative="1" as="geometry" />
        </mxCell>
        <mxCell id="GFIe7D0nDVD-GX_UhLsB-4" value="user logs in (AD001)" style="rounded=1;whiteSpace=wrap;html=1;" vertex="1" parent="1">
          <mxGeometry x="100" y="110" width="110" height="40" as="geometry" />
        </mxCell>
        <mxCell id="GFIe7D0nDVD-GX_UhLsB-17" style="edgeStyle=orthogonalEdgeStyle;rounded=0;orthogonalLoop=1;jettySize=auto;html=1;exitX=1;exitY=0.5;exitDx=0;exitDy=0;" edge="1" parent="1" source="GFIe7D0nDVD-GX_UhLsB-6" target="GFIe7D0nDVD-GX_UhLsB-16">
          <mxGeometry relative="1" as="geometry" />
        </mxCell>
        <mxCell id="GFIe7D0nDVD-GX_UhLsB-6" value="navigates to the profile&amp;nbsp;" style="rounded=1;whiteSpace=wrap;html=1;" vertex="1" parent="1">
          <mxGeometry x="100" y="170" width="110" height="50" as="geometry" />
        </mxCell>
        <mxCell id="GFIe7D0nDVD-GX_UhLsB-21" style="edgeStyle=orthogonalEdgeStyle;rounded=0;orthogonalLoop=1;jettySize=auto;html=1;exitX=1;exitY=0.5;exitDx=0;exitDy=0;entryX=0;entryY=0.5;entryDx=0;entryDy=0;" edge="1" parent="1" source="GFIe7D0nDVD-GX_UhLsB-7" target="GFIe7D0nDVD-GX_UhLsB-20">
          <mxGeometry relative="1" as="geometry" />
        </mxCell>
        <mxCell id="GFIe7D0nDVD-GX_UhLsB-7" value="selects form for password change" style="rounded=1;whiteSpace=wrap;html=1;" vertex="1" parent="1">
          <mxGeometry x="100" y="260" width="110" height="50" as="geometry" />
        </mxCell>
        <mxCell id="GFIe7D0nDVD-GX_UhLsB-24" style="edgeStyle=orthogonalEdgeStyle;rounded=0;orthogonalLoop=1;jettySize=auto;html=1;exitX=1;exitY=0.5;exitDx=0;exitDy=0;entryX=0.5;entryY=0;entryDx=0;entryDy=0;" edge="1" parent="1" source="GFIe7D0nDVD-GX_UhLsB-10" target="GFIe7D0nDVD-GX_UhLsB-12">
          <mxGeometry relative="1" as="geometry" />
        </mxCell>
        <mxCell id="GFIe7D0nDVD-GX_UhLsB-10" value="fills old password and new password" style="rounded=1;whiteSpace=wrap;html=1;" vertex="1" parent="1">
          <mxGeometry x="100" y="350" width="110" height="50" as="geometry" />
        </mxCell>
        <mxCell id="GFIe7D0nDVD-GX_UhLsB-25" style="edgeStyle=orthogonalEdgeStyle;rounded=0;orthogonalLoop=1;jettySize=auto;html=1;exitX=0.5;exitY=1;exitDx=0;exitDy=0;" edge="1" parent="1" source="GFIe7D0nDVD-GX_UhLsB-12" target="GFIe7D0nDVD-GX_UhLsB-14">
          <mxGeometry relative="1" as="geometry" />
        </mxCell>
        <mxCell id="GFIe7D0nDVD-GX_UhLsB-26" style="edgeStyle=orthogonalEdgeStyle;rounded=0;orthogonalLoop=1;jettySize=auto;html=1;exitX=1;exitY=0.5;exitDx=0;exitDy=0;" edge="1" parent="1" source="GFIe7D0nDVD-GX_UhLsB-12" target="GFIe7D0nDVD-GX_UhLsB-15">
          <mxGeometry relative="1" as="geometry" />
        </mxCell>
        <mxCell id="GFIe7D0nDVD-GX_UhLsB-12" value="passes validation?" style="rhombus;whiteSpace=wrap;html=1;" vertex="1" parent="1">
          <mxGeometry x="280" y="400" width="130" height="80" as="geometry" />
        </mxCell>
        <mxCell id="GFIe7D0nDVD-GX_UhLsB-27" style="edgeStyle=orthogonalEdgeStyle;rounded=0;orthogonalLoop=1;jettySize=auto;html=1;exitX=0.5;exitY=1;exitDx=0;exitDy=0;entryX=1;entryY=0.5;entryDx=0;entryDy=0;" edge="1" parent="1" source="GFIe7D0nDVD-GX_UhLsB-15" target="GFIe7D0nDVD-GX_UhLsB-20">
          <mxGeometry relative="1" as="geometry" />
        </mxCell>
        <mxCell id="GFIe7D0nDVD-GX_UhLsB-15" value="display error message&amp;nbsp;" style="rounded=1;whiteSpace=wrap;html=1;" vertex="1" parent="1">
          <mxGeometry x="470" y="415" width="90" height="50" as="geometry" />
        </mxCell>
        <mxCell id="GFIe7D0nDVD-GX_UhLsB-19" style="edgeStyle=orthogonalEdgeStyle;rounded=0;orthogonalLoop=1;jettySize=auto;html=1;exitX=0.5;exitY=1;exitDx=0;exitDy=0;entryX=0.5;entryY=0;entryDx=0;entryDy=0;" edge="1" parent="1" source="GFIe7D0nDVD-GX_UhLsB-16" target="GFIe7D0nDVD-GX_UhLsB-7">
          <mxGeometry relative="1" as="geometry" />
        </mxCell>
        <mxCell id="GFIe7D0nDVD-GX_UhLsB-22" style="edgeStyle=orthogonalEdgeStyle;rounded=0;orthogonalLoop=1;jettySize=auto;html=1;exitX=0.5;exitY=1;exitDx=0;exitDy=0;entryX=0.5;entryY=0;entryDx=0;entryDy=0;" edge="1" parent="1" source="GFIe7D0nDVD-GX_UhLsB-20" target="GFIe7D0nDVD-GX_UhLsB-10">
          <mxGeometry relative="1" as="geometry" />
        </mxCell>
        <mxCell id="GFIe7D0nDVD-GX_UhLsB-30" value="Program" style="swimlane;startSize=20;html=1;" vertex="1" parent="1">
          <mxGeometry x="270" y="10" width="440" height="660" as="geometry" />
        </mxCell>
        <mxCell id="GFIe7D0nDVD-GX_UhLsB-20" value="display password change form&amp;nbsp;" style="rounded=1;whiteSpace=wrap;html=1;" vertex="1" parent="GFIe7D0nDVD-GX_UhLsB-30">
          <mxGeometry x="220" y="250" width="100" height="50" as="geometry" />
        </mxCell>
        <mxCell id="GFIe7D0nDVD-GX_UhLsB-16" value="display user profile" style="rounded=1;whiteSpace=wrap;html=1;" vertex="1" parent="GFIe7D0nDVD-GX_UhLsB-30">
          <mxGeometry x="40" y="160" width="100" height="50" as="geometry" />
        </mxCell>
        <mxCell id="GFIe7D0nDVD-GX_UhLsB-34" style="edgeStyle=orthogonalEdgeStyle;rounded=0;orthogonalLoop=1;jettySize=auto;html=1;exitX=0.5;exitY=1;exitDx=0;exitDy=0;entryX=0.5;entryY=0;entryDx=0;entryDy=0;" edge="1" parent="GFIe7D0nDVD-GX_UhLsB-30" source="GFIe7D0nDVD-GX_UhLsB-14" target="GFIe7D0nDVD-GX_UhLsB-32">
          <mxGeometry relative="1" as="geometry" />
        </mxCell>
        <mxCell id="GFIe7D0nDVD-GX_UhLsB-14" value="save new password" style="rounded=1;whiteSpace=wrap;html=1;" vertex="1" parent="GFIe7D0nDVD-GX_UhLsB-30">
          <mxGeometry x="30" y="520" width="90" height="40" as="geometry" />
        </mxCell>
        <mxCell id="GFIe7D0nDVD-GX_UhLsB-32" value="" style="ellipse;html=1;shape=endState;fillColor=#000000;strokeColor=#ff0000;" vertex="1" parent="GFIe7D0nDVD-GX_UhLsB-30">
          <mxGeometry x="60" y="610" width="30" height="30" as="geometry" />
        </mxCell>
        <mxCell id="GFIe7D0nDVD-GX_UhLsB-29" value="User" style="swimlane;startSize=20;html=1;" vertex="1" parent="1">
          <mxGeometry x="40" y="10" width="230" height="660" as="geometry" />
        </mxCell>
        <mxCell id="GFIe7D0nDVD-GX_UhLsB-2" value="" style="ellipse;html=1;shape=startState;fillColor=#000000;strokeColor=#ff0000;" vertex="1" parent="GFIe7D0nDVD-GX_UhLsB-29">
          <mxGeometry x="100" y="40" width="30" height="30" as="geometry" />
        </mxCell>
      </root>
    </mxGraphModel>
  </diagram>
</mxfile>
